
<svg width="192px" height="23px" viewBox="0 0 192 23" version="1.1" xmlns="http://www.w3.org/2000/svg" xmlns:xlink="http://www.w3.org/1999/xlink">
    <!-- Generator: Sketch 48.2 (47327) - http://www.bohemiancoding.com/sketch -->
    <desc>Created with Sketch.</desc>
    <defs></defs>
    <g id="Page-1" stroke="none" stroke-width="1" fill="none" fill-rule="evenodd">
        <g id="Desktop-HD-Copy" transform="translate(-33.000000, -38.000000)" fill="#FFFFFF">
            <path d="M51.975,57.39 C51.0749955,58.4700054 49.9400068,59.2749973 48.57,59.805 C47.1999931,60.3350026 45.8050071,60.6 44.385,60.6 C42.784992,60.6 41.3250066,60.3200028 40.005,59.76 C38.6849934,59.1999972 37.5450048,58.425005 36.585,57.435 C35.6249952,56.4449951 34.8800026,55.2600069 34.35,53.88 C33.8199973,52.4999931 33.555,51.0000081 33.555,49.38 C33.555,47.7599919 33.8199973,46.2600069 34.35,44.88 C34.8800026,43.4999931 35.6249952,42.315005 36.585,41.325 C37.5450048,40.3349951 38.6899933,39.5600028 40.02,39 C41.3500066,38.4399972 42.8049921,38.16 44.385,38.16 C45.7050066,38.16 46.9899937,38.3849977 48.24,38.835 C49.4900062,39.2850023 50.5549956,39.9699954 51.435,40.89 L51.015,41.37 C50.5949979,40.9299978 50.1200026,40.5450017 49.59,40.215 C49.0599973,39.8849984 48.5000029,39.6100011 47.91,39.39 C47.319997,39.1699989 46.725003,39.0100005 46.125,38.91 C45.524997,38.8099995 44.9450028,38.76 44.385,38.76 C42.8649924,38.76 41.4800062,39.0349973 40.23,39.585 C38.9799937,40.1350027 37.9100044,40.8899952 37.02,41.85 C36.1299955,42.8100048 35.4400024,43.9349936 34.95,45.225 C34.4599975,46.5150065 34.215,47.8999926 34.215,49.38 C34.215,50.8600074 34.4549976,52.2449936 34.935,53.535 C35.4150024,54.8250065 36.0999955,55.9499952 36.99,56.91 C37.8800044,57.8700048 38.9499937,58.6249972 40.2,59.175 C41.4500062,59.7250028 42.8449923,60 44.385,60 C45.7050066,60 47.0099935,59.7450026 48.3,59.235 C49.5900064,58.7249975 50.6549958,57.9600051 51.495,56.94 L51.975,57.39 Z M61.2145784,60 L60.615,60 L69.825,38.76 L70.665,38.76 L79.515,60 L78.8310836,60 L70.215,39.18 L61.2145784,60 Z M101.955,54.9 C101.955,55.8000045 101.780002,56.6049965 101.43,57.315 C101.079998,58.0250036 100.615003,58.6249976 100.035,59.115 C99.4549971,59.6050025 98.770004,59.9749987 97.98,60.225 C97.189996,60.4750012 96.3650043,60.6 95.505,60.6 C94.1849934,60.6 92.9800054,60.3650023 91.89,59.895 C90.7999946,59.4249977 89.8950036,58.790004 89.175,57.99 L89.685,57.54 C90.4450038,58.3600041 91.3299949,58.974998 92.34,59.385 C93.350005,59.7950021 94.3949946,60 95.475,60 C96.2550039,60 96.9949965,59.8850012 97.695,59.655 C98.3950035,59.4249989 99.0149973,59.0950021 99.555,58.665 C100.095003,58.2349978 100.519998,57.7050031 100.83,57.075 C101.140002,56.4449969 101.295,55.7200041 101.295,54.9 C101.295,54.0799959 101.125002,53.3900028 100.785,52.83 C100.444998,52.2699972 100.005003,51.790002 99.465,51.39 C98.9249973,50.989998 98.3100034,50.6550013 97.62,50.385 C96.9299965,50.1149987 96.2350035,49.8700011 95.535,49.65 C94.6549956,49.3699986 93.8500036,49.0750016 93.12,48.765 C92.3899963,48.4549985 91.7600026,48.0750022 91.23,47.625 C90.6999973,47.1749978 90.2900015,46.6350032 90,46.005 C89.7099985,45.3749969 89.565,44.6100045 89.565,43.71 C89.565,42.8299956 89.7399982,42.0450034 90.09,41.355 C90.4400017,40.6649965 90.914997,40.0850024 91.515,39.615 C92.115003,39.1449977 92.809996,38.7850012 93.6,38.535 C94.3900039,38.2849987 95.2249956,38.16 96.105,38.16 C97.1850054,38.16 98.2099951,38.364998 99.18,38.775 C100.150005,39.1850021 100.944997,39.7699962 101.565,40.53 L101.055,40.98 C100.494997,40.2799965 99.7800043,39.7350019 98.91,39.345 C98.0399956,38.9549981 97.0950051,38.76 96.075,38.76 C95.3549964,38.76 94.6500034,38.859999 93.96,39.06 C93.2699966,39.260001 92.6450028,39.5649979 92.085,39.975 C91.5249972,40.385002 91.0750017,40.8999969 90.735,41.52 C90.3949983,42.1400031 90.225,42.8699958 90.225,43.71 C90.225,44.5300041 90.3749985,45.2249972 90.675,45.795 C90.9750015,46.3650028 91.3749975,46.849998 91.875,47.25 C92.3750025,47.650002 92.9399968,47.9799987 93.57,48.24 C94.2000031,48.5000013 94.8449967,48.7399989 95.505,48.96 C96.4050045,49.2600015 97.2449961,49.5649985 98.025,49.875 C98.8050039,50.1850015 99.489997,50.5599978 100.08,51 C100.670003,51.4400022 101.129998,51.9749968 101.46,52.605 C101.790002,53.2350031 101.955,53.9999955 101.955,54.9 Z M126.555,54.9 C126.555,55.8000045 126.380002,56.6049965 126.03,57.315 C125.679998,58.0250036 125.215003,58.6249976 124.635,59.115 C124.054997,59.6050025 123.370004,59.9749987 122.58,60.225 C121.789996,60.4750012 120.965004,60.6 120.105,60.6 C118.784993,60.6 117.580005,60.3650023 116.49,59.895 C115.399995,59.4249977 114.495004,58.790004 113.775,57.99 L114.285,57.54 C115.045004,58.3600041 115.929995,58.974998 116.94,59.385 C117.950005,59.7950021 118.994995,60 120.075,60 C120.855004,60 121.594996,59.8850012 122.295,59.655 C122.995003,59.4249989 123.614997,59.0950021 124.155,58.665 C124.695003,58.2349978 125.119998,57.7050031 125.43,57.075 C125.740002,56.4449969 125.895,55.7200041 125.895,54.9 C125.895,54.0799959 125.725002,53.3900028 125.385,52.83 C125.044998,52.2699972 124.605003,51.790002 124.065,51.39 C123.524997,50.989998 122.910003,50.6550013 122.22,50.385 C121.529997,50.1149987 120.835003,49.8700011 120.135,49.65 C119.254996,49.3699986 118.450004,49.0750016 117.72,48.765 C116.989996,48.4549985 116.360003,48.0750022 115.83,47.625 C115.299997,47.1749978 114.890001,46.6350032 114.6,46.005 C114.309999,45.3749969 114.165,44.6100045 114.165,43.71 C114.165,42.8299956 114.339998,42.0450034 114.69,41.355 C115.040002,40.6649965 115.514997,40.0850024 116.115,39.615 C116.715003,39.1449977 117.409996,38.7850012 118.2,38.535 C118.990004,38.2849987 119.824996,38.16 120.705,38.16 C121.785005,38.16 122.809995,38.364998 123.78,38.775 C124.750005,39.1850021 125.544997,39.7699962 126.165,40.53 L125.655,40.98 C125.094997,40.2799965 124.380004,39.7350019 123.51,39.345 C122.639996,38.9549981 121.695005,38.76 120.675,38.76 C119.954996,38.76 119.250003,38.859999 118.56,39.06 C117.869997,39.260001 117.245003,39.5649979 116.685,39.975 C116.124997,40.385002 115.675002,40.8999969 115.335,41.52 C114.994998,42.1400031 114.825,42.8699958 114.825,43.71 C114.825,44.5300041 114.974998,45.2249972 115.275,45.795 C115.575001,46.3650028 115.974998,46.849998 116.475,47.25 C116.975002,47.650002 117.539997,47.9799987 118.17,48.24 C118.800003,48.5000013 119.444997,48.7399989 120.105,48.96 C121.005004,49.2600015 121.844996,49.5649985 122.625,49.875 C123.405004,50.1850015 124.089997,50.5599978 124.68,51 C125.270003,51.4400022 125.729998,51.9749968 126.06,52.605 C126.390002,53.2350031 126.555,53.9999955 126.555,54.9 Z M139.395,60 L139.395,38.76 L140.055,38.76 L140.055,60 L139.395,60 Z M166.388899,53.91 L160.335,39.18 L151.395239,60 L150.735,60 L159.945,38.76 L160.785,38.76 L169.635,60 L168.915,60 L166.395,53.91 L166.388899,53.91 Z M196.305,60 L181.065,39.6 L180.975,39.6 L180.975,60 L180.315,60 L180.315,38.76 L181.245,38.76 L196.515,59.13 L196.605,59.13 L196.605,38.76 L197.265,38.76 L197.265,60 L196.305,60 Z M224.445,49.38 C224.445,51.0200082 224.170003,52.5249932 223.62,53.895 C223.069997,55.2650068 222.310005,56.4449951 221.34,57.435 C220.369995,58.425005 219.215007,59.1999972 217.875,59.76 C216.534993,60.3200028 215.085008,60.6 213.525,60.6 C211.964992,60.6 210.515007,60.3200028 209.175,59.76 C207.834993,59.1999972 206.680005,58.425005 205.71,57.435 C204.739995,56.4449951 203.980003,55.2650068 203.43,53.895 C202.879997,52.5249932 202.605,51.0200082 202.605,49.38 C202.605,47.7399918 202.879997,46.2350069 203.43,44.865 C203.980003,43.4949931 204.739995,42.315005 205.71,41.325 C206.680005,40.3349951 207.829993,39.5600028 209.16,39 C210.490007,38.4399972 211.944992,38.16 213.525,38.16 C215.105008,38.16 216.559993,38.4399972 217.89,39 C219.220007,39.5600028 220.369995,40.3349951 221.34,41.325 C222.310005,42.315005 223.069997,43.4949931 223.62,44.865 C224.170003,46.2350069 224.445,47.7399918 224.445,49.38 Z M223.785,49.38 C223.785,47.8999926 223.535003,46.5150065 223.035,45.225 C222.534997,43.9349936 221.830005,42.8100048 220.92,41.85 C220.009995,40.8899952 218.925006,40.1350027 217.665,39.585 C216.404994,39.0349973 215.025008,38.76 213.525,38.76 C212.024992,38.76 210.645006,39.0349973 209.385,39.585 C208.124994,40.1350027 207.040005,40.8899952 206.13,41.85 C205.219995,42.8100048 204.515002,43.9349936 204.015,45.225 C203.514997,46.5150065 203.265,47.8999926 203.265,49.38 C203.265,50.8600074 203.509998,52.2449936 204,53.535 C204.490002,54.8250065 205.184996,55.9499952 206.085,56.91 C206.985005,57.8700048 208.064994,58.6249973 209.325,59.175 C210.585006,59.7250028 211.984992,60 213.525,60 C215.065008,60 216.464994,59.7250028 217.725,59.175 C218.985006,58.6249973 220.064996,57.8700048 220.965,56.91 C221.865004,55.9499952 222.559998,54.8250065 223.05,53.535 C223.540002,52.2449936 223.785,50.8600074 223.785,49.38 Z" id="C-A-S-S-I-A-NO"></path>
        </g>
    </g>
</svg>